<?xml version="1.0" standalone="no"?>
<!DOCTYPE svg PUBLIC "-//W3C//DTD SVG 20010904//EN"
 "http://www.w3.org/TR/2001/REC-SVG-20010904/DTD/svg10.dtd">
<svg version="1.0" xmlns="http://www.w3.org/2000/svg"
 width="396.000000pt" height="396.000000pt" viewBox="0 0 396.000000 396.000000"
 preserveAspectRatio="xMidYMid meet">
<metadata>
Created by potrace 1.11, written by Peter Selinger 2001-2013
</metadata>
<g transform="translate(0.000000,396.000000) scale(0.100000,-0.100000)"
fill="#000000" stroke="none">
<path d="M0 1980 l0 -1980 1980 0 1980 0 0 1980 0 1980 -1980 0 -1980 0 0
-1980z m2988 1161 c67 -27 107 -65 141 -132 l31 -62 0 -986 c0 -969 -1 -987
-21 -1031 -32 -72 -65 -106 -130 -139 l-62 -31 -983 0 c-895 0 -987 2 -1026
17 -68 26 -114 68 -147 135 l-31 61 0 987 0 987 31 62 c34 67 74 105 141 132
40 17 112 18 1028 18 916 0 988 -1 1028 -18z"/>
<path d="M1740 2875 c-6 -8 -18 -61 -26 -117 -19 -140 -24 -158 -38 -158 -7 0
-41 -18 -75 -40 -34 -22 -66 -40 -70 -40 -5 0 -60 20 -122 45 -62 25 -122 45
-133 43 -21 -3 -46 -42 -165 -254 -39 -70 -59 -117 -55 -127 3 -10 45 -47 93
-84 125 -98 116 -84 113 -190 l-3 -92 -87 -68 c-117 -91 -124 -100 -116 -126
4 -12 49 -95 102 -185 67 -116 101 -164 117 -168 13 -3 65 12 134 40 63 25
117 46 122 46 5 0 36 -18 70 -40 34 -22 68 -40 74 -40 16 0 22 -23 36 -145 18
-155 1 -145 248 -145 171 0 211 3 221 15 6 8 18 61 26 117 19 140 24 158 38
158 7 0 41 18 75 40 34 22 65 40 70 40 5 0 59 -20 121 -46 62 -25 122 -44 134
-42 32 5 232 351 220 382 -3 9 -45 46 -93 83 -125 98 -116 84 -113 190 l3 92
87 68 c117 91 124 100 116 126 -4 12 -49 95 -102 185 -67 116 -101 164 -117
168 -13 3 -65 -12 -134 -40 -63 -25 -117 -46 -122 -46 -5 0 -36 18 -70 40 -34
22 -68 40 -75 40 -14 0 -19 18 -38 158 -8 56 -20 109 -26 117 -10 12 -50 15
-220 15 -170 0 -210 -3 -220 -15z m306 -666 c73 -28 126 -76 155 -142 45 -102
19 -228 -61 -301 -41 -37 -134 -76 -180 -76 -46 0 -139 39 -180 76 -131 119
-102 346 55 426 84 44 130 47 211 17z"/>
</g>
</svg>
